<?xml version="1.0" encoding="UTF-8"?>
<!DOCTYPE svg PUBLIC "-//W3C//DTD SVG 1.1//EN" "http://www.w3.org/Graphics/SVG/1.1/DTD/svg11.dtd">
<!-- Creator: CorelDRAW 2021.5 -->
<svg xmlns="http://www.w3.org/2000/svg" xml:space="preserve" width="1024px" height="332px" version="1.1" style="shape-rendering:geometricPrecision; text-rendering:geometricPrecision; image-rendering:optimizeQuality; fill-rule:evenodd; clip-rule:evenodd"
viewBox="0 0 1023.39 331.63"
 xmlns:xlink="http://www.w3.org/1999/xlink"
 xmlns:xodm="http://www.corel.com/coreldraw/odm/2003">
 <defs>
  <style type="text/css">
   <![CDATA[
    .fil0 {fill:#2B2A29;fill-rule:nonzero}
    .fil1 {fill:#EF7F1A;fill-rule:nonzero}
   ]]>
  </style>
 </defs>
 <g id="Layer_x0020_1">
  <metadata id="CorelCorpID_0Corel-Layer"/>
  <path class="fil0" d="M895.02 192.61l18.49 0 -30.73 18.12 30.98 18.09 -18.74 0 -16.16 -9.38c-0.75,-0.43 -1.44,-0.86 -2.04,-1.27 -0.61,-0.42 -1.15,-0.85 -1.63,-1.32 -0.46,-0.47 -0.88,-0.98 -1.25,-1.52 -0.37,-0.55 -0.7,-1.18 -0.98,-1.89l0 15.38 -9.97 0 0 -36.26 9.97 0 0 15.62c0.29,-0.7 0.65,-1.33 1.05,-1.89 0.39,-0.55 0.87,-1.08 1.41,-1.57 0.52,-0.49 1.12,-0.96 1.79,-1.4 0.66,-0.45 1.41,-0.93 2.24,-1.42l15.57 -9.29zm90.59 -0.09l37.78 0 0 7.76 -37.14 0c-2.5,0 -5.03,2.35 -5.03,7l35.56 0 0 6.89 -35.56 0c-0.05,4.56 3.66,6.79 6.42,6.7l35.75 0 0 8.02 -37.87 0c-1.67,0 -3.27,-0.27 -4.78,-0.86 -1.54,-0.57 -2.89,-1.38 -4.06,-2.41 -1.18,-1.02 -2.11,-2.24 -2.81,-3.67 -0.71,-1.41 -1.05,-2.99 -1.05,-4.69l0 -13.14c0,-1.81 0.33,-3.43 1,-4.87 0.66,-1.45 1.57,-2.65 2.73,-3.65 1.15,-1.01 2.51,-1.78 4.06,-2.29 1.55,-0.53 3.22,-0.79 5,-0.79zm-220.69 0l37.77 0 0 7.76 -37.13 0c-2.51,0 -5.04,2.35 -5.04,7l35.57 0 0 6.89 -35.57 0c-0.05,4.56 3.67,6.79 6.42,6.7l35.75 0 0 8.02 -37.87 0c-1.67,0 -3.27,-0.27 -4.78,-0.86 -1.54,-0.57 -2.88,-1.38 -4.06,-2.41 -1.18,-1.02 -2.11,-2.24 -2.81,-3.67 -0.7,-1.41 -1.05,-2.99 -1.05,-4.69l0 -13.14c0,-1.81 0.33,-3.43 1,-4.87 0.67,-1.45 1.58,-2.65 2.73,-3.65 1.15,-1.01 2.51,-1.78 4.06,-2.29 1.55,-0.53 3.22,-0.79 5.01,-0.79zm-131.11 65.74l74.68 0 0 15.34 -73.42 0c-4.95,0 -9.97,4.64 -9.97,13.85l70.34 0 0 13.61 -70.34 0c-0.1,9.03 7.26,13.43 12.71,13.27l70.68 0 0 15.85 -74.88 0c-3.29,0 -6.46,-0.53 -9.46,-1.69 -3.04,-1.14 -5.7,-2.73 -8,-4.77 -2.35,-2.02 -4.19,-4.44 -5.58,-7.26 -1.38,-2.8 -2.08,-5.91 -2.08,-9.29l0 -25.96c0,-3.6 0.67,-6.8 1.99,-9.65 1.31,-2.86 3.11,-5.25 5.4,-7.22 2.26,-1.99 4.96,-3.5 8.03,-4.51 3.06,-1.06 6.36,-1.57 9.9,-1.57zm-532.16 0.34l0 17.9 -83.05 0 0 35.57 83.05 0 0 17.82 -78.14 0c-2.96,0 -5.85,-0.52 -8.67,-1.56 -2.82,-1.04 -5.32,-2.47 -7.52,-4.33 -2.21,-1.84 -3.98,-4.04 -5.32,-6.61 -1.34,-2.56 -2,-5.38 -2,-8.48l0 -24c0,-8.92 2.29,-15.53 6.85,-19.85 4.56,-4.3 11.31,-6.46 20.24,-6.46l74.56 0zm150.62 15.64l0 55.65 -18.09 0 0 -53.39 -48.62 47.47c-2.29,2.5 -4.71,4.29 -7.22,5.37 -2.52,1.08 -5.14,1.63 -7.88,1.63 -2.81,0 -5.31,-0.53 -7.51,-1.61 -2.21,-1.07 -4.08,-2.5 -5.59,-4.33 -1.54,-1.8 -2.7,-3.91 -3.51,-6.35 -0.8,-2.42 -1.2,-5 -1.2,-7.74l0 -52.17 18.18 0 0 53.2 48.67 -47.89c4.72,-4.63 9.69,-6.95 14.88,-6.95 2.3,0 4.53,0.34 6.67,1 2.16,0.66 4.06,1.69 5.72,3.08 1.65,1.4 2.98,3.19 3.98,5.34 1.02,2.16 1.52,4.72 1.52,7.69zm152.65 -15.64l0 17.9 -83.05 0 0 35.57 83.05 0 0 17.82 -78.14 0c-2.96,0 -5.85,-0.52 -8.67,-1.56 -2.82,-1.04 -5.32,-2.47 -7.53,-4.33 -2.2,-1.84 -3.97,-4.04 -5.31,-6.61 -1.34,-2.56 -2,-5.38 -2,-8.48l0 -24c0,-8.92 2.29,-15.53 6.85,-19.85 4.56,-4.3 11.31,-6.46 20.24,-6.46l74.56 0zm50.99 0l101.48 0 0 18.09 -41.6 0 0 53.2 -18.37 0 0 -53.2 -41.51 0 0 -18.09zm321.04 71.29l-17.33 0 0 -53.62c0,-2.44 0.45,-4.71 1.34,-6.85 0.9,-2.15 2.14,-4.02 3.7,-5.63 1.58,-1.6 3.42,-2.87 5.53,-3.81 2.11,-0.92 4.4,-1.38 6.85,-1.38 2.34,0 4.49,0.4 6.45,1.21 1.97,0.8 3.76,1.88 5.35,3.27 1.61,1.39 3.03,3.02 4.26,4.9 1.22,1.87 2.27,3.86 3.11,5.97l16.14 39.78 17.67 -41.91c0.76,-2.02 1.71,-3.84 2.84,-5.48 1.12,-1.63 2.43,-3.03 3.91,-4.18 1.49,-1.15 3.13,-2.03 4.94,-2.65 1.81,-0.61 3.78,-0.91 5.93,-0.91 2.7,0 5.15,0.54 7.33,1.63 2.19,1.07 4.06,2.54 5.62,4.36 1.55,1.83 2.76,3.94 3.58,6.34 0.84,2.39 1.26,4.87 1.26,7.45l0 51.51 -17.32 0 0 -52.44 -17.11 37.46c-1.29,2.8 -2.48,5.26 -3.58,7.33 -1.11,2.1 -2.32,3.84 -3.64,5.23 -1.32,1.39 -2.85,2.43 -4.59,3.13 -1.75,0.69 -3.93,1.03 -6.54,1.03 -2.31,0 -4.41,-0.47 -6.29,-1.39 -1.89,-0.93 -3.59,-2.17 -5.14,-3.74 -1.55,-1.56 -2.93,-3.33 -4.16,-5.35 -1.22,-2.02 -2.32,-4.13 -3.3,-6.34l-16.81 -36.7 0 51.78zm158.64 -17.82l43.12 0 0 -9.06 -43.12 0 0 9.06zm87.8 -53.47l0 71.85 -17.48 0 0 -71.85 17.48 0zm-51.15 71.66l-55.81 0 0 -71.66 19.16 0 0 26.69 38.78 0c3.11,0 6.08,0.59 8.9,1.78 2.82,1.21 5.3,2.83 7.43,4.87 2.14,2.05 3.85,4.46 5.11,7.21 1.25,2.76 1.88,5.71 1.88,8.86 0,3.24 -0.71,6.22 -2.13,8.95 -1.41,2.72 -3.3,5.07 -5.65,7.04 -2.37,1.97 -5.08,3.5 -8.12,4.6 -3.07,1.11 -6.24,1.66 -9.55,1.66zm-3.82 -129.7l0 28.26 -9.05 0 0 -27.11 -24.32 24.11c-1.15,1.27 -2.36,2.17 -3.61,2.73 -1.27,0.54 -2.58,0.82 -3.95,0.82 -1.4,0 -2.65,-0.27 -3.76,-0.82 -1.1,-0.54 -2.04,-1.27 -2.8,-2.19 -0.76,-0.92 -1.34,-1.99 -1.74,-3.23 -0.41,-1.23 -0.61,-2.54 -0.61,-3.93l0 -26.5 9.09 0 0 27.02 24.36 -24.32c2.36,-2.35 4.85,-3.53 7.44,-3.53 1.15,0 2.27,0.17 3.34,0.51 1.08,0.33 2.03,0.86 2.86,1.56 0.83,0.71 1.5,1.62 2,2.71 0.5,1.1 0.75,2.4 0.75,3.91zm-681.98 -8.12l-34.61 0c0,3.13 0,4.8 0,7.92l33.63 0c3.83,0 7.35,2.07 7.35,6.8l-28.37 0 0 7.13 28.37 0c0,4.16 -4.76,6.58 -7.46,6.5l-33.52 0 0 8.18 34.61 0c19.69,0 21.73,-36.53 0,-36.53zm-273.76 0.27l26.37 0c1.48,0 2.9,0.32 4.26,0.95 1.36,0.63 2.56,1.47 3.58,2.54 1.03,1.06 1.85,2.29 2.46,3.68 0.61,1.4 0.92,2.85 0.92,4.37l0 13.41c0,1.01 -0.14,1.98 -0.43,2.91 -0.28,0.92 -0.67,1.8 -1.19,2.61 -0.51,0.82 -1.12,1.57 -1.83,2.24 -0.71,0.67 -1.49,1.24 -2.32,1.73 -0.85,0.5 -1.74,0.86 -2.69,1.13 -0.94,0.27 -1.91,0.39 -2.9,0.39l-27.53 0c-1.6,0 -3.1,-0.28 -4.5,-0.86 -1.39,-0.58 -2.59,-1.37 -3.6,-2.39 -1.02,-1.03 -1.82,-2.25 -2.41,-3.67 -0.58,-1.41 -0.87,-2.95 -0.87,-4.62l0 -13.72c0,-1.57 0.36,-3.01 1.09,-4.32 0.72,-1.31 1.68,-2.44 2.87,-3.38 1.21,-0.94 2.56,-1.68 4.07,-2.2 1.51,-0.53 3.07,-0.8 4.65,-0.8zm28.21 9.39l-31.63 0 0 17.48 31.63 0 0 -17.48zm46.26 -9.49l18.49 0 -30.73 18.12 30.98 18.09 -18.74 0 -16.16 -9.38c-0.75,-0.43 -1.44,-0.86 -2.04,-1.27 -0.61,-0.42 -1.15,-0.85 -1.62,-1.32 -0.47,-0.47 -0.89,-0.98 -1.27,-1.52 -0.36,-0.55 -0.69,-1.18 -0.98,-1.89l0 15.38 -9.96 0 0 -36.26 9.96 0 0 15.62c0.3,-0.7 0.66,-1.33 1.06,-1.89 0.39,-0.55 0.86,-1.08 1.4,-1.57 0.53,-0.49 1.13,-0.96 1.8,-1.4 0.66,-0.45 1.4,-0.93 2.24,-1.42l15.57 -9.29zm36.34 36.35l-12.78 -0.05 0 -24.51c0,-1.57 0.32,-3.07 0.97,-4.48 0.64,-1.42 1.5,-2.66 2.57,-3.72 1.07,-1.07 2.31,-1.91 3.7,-2.54 1.4,-0.63 2.84,-0.95 4.33,-0.95l38.37 0 0 9.53 -40.64 0 0 4.18 30.86 0c1.02,0 2.02,0.13 3,0.38 0.97,0.25 1.9,0.61 2.77,1.08 0.88,0.46 1.68,1.03 2.41,1.7 0.74,0.68 1.36,1.42 1.9,2.24 0.52,0.83 0.93,1.72 1.23,2.69 0.3,0.97 0.45,1.99 0.45,3.06 0,1.66 -0.34,3.19 -1.02,4.58 -0.69,1.39 -1.61,2.6 -2.74,3.6 -1.15,1.01 -2.45,1.79 -3.94,2.36 -1.48,0.56 -3.01,0.85 -4.58,0.85l-26.86 0zm30.57 -9.81l0 -4.24 -34.05 0 0 4.24 34.05 0zm55.06 9.67l-10.22 0 13.88 -27.28c0.71,-1.39 1.4,-2.64 2.06,-3.74 0.66,-1.11 1.38,-2.05 2.15,-2.83 0.78,-0.77 1.65,-1.36 2.62,-1.78 0.98,-0.42 2.14,-0.63 3.48,-0.63 1.32,0 2.44,0.21 3.36,0.62 0.93,0.41 1.75,1 2.47,1.78 0.72,0.79 1.41,1.76 2.05,2.9 0.65,1.16 1.36,2.47 2.13,3.94l13.9 27.02 -9.88 0 -5.36 -9.47 -17.72 0 -4.92 9.47zm9.57 -18.76l8.46 0 -4.21 -7.72 -4.25 7.72zm127.66 -17.5c1.67,0 3.28,0.28 4.81,0.83 1.54,0.55 2.89,1.33 4.06,2.33 1.17,1 2.11,2.19 2.8,3.58 0.7,1.38 1.04,2.9 1.04,4.57 0,1.59 -0.31,3.09 -0.94,4.49 -0.63,1.4 -1.47,2.62 -2.54,3.67 -1.06,1.05 -2.3,1.88 -3.71,2.48 -1.41,0.59 -2.9,0.9 -4.45,0.9l-31.03 0 0 13.41 -9.58 0 0 -36.26 39.54 0zm-29.96 9.24l0 4.61 33.2 0 0 -4.61 -33.2 0zm60.2 -9.09l26.37 0c1.48,0 2.9,0.32 4.26,0.95 1.36,0.63 2.56,1.47 3.58,2.54 1.03,1.06 1.85,2.29 2.46,3.68 0.61,1.4 0.92,2.85 0.92,4.37l0 13.41c0,1.01 -0.15,1.98 -0.43,2.91 -0.28,0.92 -0.68,1.8 -1.19,2.61 -0.51,0.82 -1.12,1.57 -1.83,2.24 -0.71,0.67 -1.48,1.24 -2.32,1.73 -0.85,0.5 -1.74,0.86 -2.69,1.13 -0.94,0.27 -1.91,0.39 -2.9,0.39l-27.53 0c-1.6,0 -3.1,-0.28 -4.5,-0.86 -1.39,-0.58 -2.59,-1.37 -3.61,-2.39 -1.01,-1.03 -1.81,-2.25 -2.4,-3.67 -0.58,-1.41 -0.87,-2.95 -0.87,-4.62l0 -13.72c0,-1.57 0.36,-3.01 1.09,-4.32 0.73,-1.31 1.68,-2.44 2.88,-3.38 1.2,-0.94 2.55,-1.68 4.06,-2.2 1.52,-0.53 3.06,-0.8 4.65,-0.8zm28.21 9.39l-31.63 0 0 17.48 31.63 0 0 -17.48zm46.26 -9.49l18.5 0 -30.74 18.12 30.98 18.09 -18.74 0 -16.16 -9.38c-0.76,-0.43 -1.44,-0.86 -2.05,-1.27 -0.6,-0.42 -1.14,-0.85 -1.62,-1.32 -0.46,-0.47 -0.88,-0.98 -1.26,-1.52 -0.36,-0.55 -0.7,-1.18 -0.98,-1.89l0 15.38 -9.96 0 0 -36.26 9.96 0 0 15.62c0.3,-0.7 0.66,-1.33 1.06,-1.89 0.4,-0.55 0.86,-1.08 1.4,-1.57 0.53,-0.49 1.13,-0.96 1.8,-1.4 0.66,-0.45 1.4,-0.93 2.24,-1.42l15.57 -9.29zm33.63 0.1l26.36 0c1.49,0 2.9,0.32 4.27,0.95 1.36,0.63 2.55,1.47 3.58,2.54 1.02,1.06 1.84,2.29 2.46,3.68 0.61,1.4 0.91,2.85 0.91,4.37l0 13.41c0,1.01 -0.14,1.98 -0.42,2.91 -0.29,0.92 -0.68,1.8 -1.19,2.61 -0.51,0.82 -1.13,1.57 -1.84,2.24 -0.71,0.67 -1.48,1.24 -2.32,1.73 -0.84,0.5 -1.74,0.86 -2.68,1.13 -0.95,0.27 -1.91,0.39 -2.91,0.39l-27.52 0c-1.6,0 -3.11,-0.28 -4.5,-0.86 -1.39,-0.58 -2.6,-1.37 -3.61,-2.39 -1.02,-1.03 -1.81,-2.25 -2.4,-3.67 -0.58,-1.41 -0.88,-2.95 -0.88,-4.62l0 -13.72c0,-1.57 0.37,-3.01 1.09,-4.32 0.73,-1.31 1.69,-2.44 2.88,-3.38 1.2,-0.94 2.56,-1.68 4.07,-2.2 1.51,-0.53 3.06,-0.8 4.65,-0.8zm28.21 9.39l-31.64 0 0 17.48 31.64 0 0 -17.48zm65.08 -9.49l0 9.1 -41.55 0 0 18.06 41.55 0 0 9.05 -39.09 0c-1.49,0 -2.93,-0.26 -4.34,-0.79 -1.41,-0.53 -2.66,-1.25 -3.77,-2.2 -1.1,-0.93 -1.99,-2.05 -2.66,-3.36 -0.67,-1.3 -1,-2.73 -1,-4.3l0 -12.19c0,-4.53 1.15,-7.89 3.43,-10.08 2.28,-2.19 5.66,-3.29 10.13,-3.29l37.3 0zm13.49 36.21l-8.67 0 0 -27.23c0,-1.24 0.23,-2.39 0.67,-3.48 0.45,-1.09 1.08,-2.04 1.86,-2.86 0.79,-0.81 1.71,-1.46 2.76,-1.93 1.06,-0.47 2.2,-0.71 3.43,-0.71 1.17,0 2.24,0.21 3.23,0.62 0.98,0.41 1.87,0.96 2.67,1.66 0.81,0.71 1.52,1.53 2.13,2.49 0.61,0.95 1.14,1.96 1.56,3.03l8.08 20.21 8.84 -21.29c0.38,-1.02 0.85,-1.95 1.42,-2.79 0.56,-0.82 1.21,-1.54 1.96,-2.11 0.74,-0.59 1.56,-1.04 2.47,-1.35 0.9,-0.31 1.89,-0.47 2.96,-0.47 1.35,0 2.58,0.28 3.67,0.83 1.1,0.55 2.03,1.29 2.82,2.22 0.77,0.92 1.37,2 1.78,3.22 0.42,1.21 0.64,2.47 0.64,3.78l0 26.16 -8.68 0 0 -26.63 -8.55 19.03c-0.65,1.42 -1.24,2.66 -1.79,3.72 -0.56,1.07 -1.16,1.95 -1.83,2.65 -0.66,0.71 -1.42,1.24 -2.29,1.59 -0.88,0.36 -1.97,0.53 -3.27,0.53 -1.16,0 -2.21,-0.24 -3.15,-0.71 -0.94,-0.47 -1.8,-1.1 -2.57,-1.9 -0.78,-0.79 -1.47,-1.69 -2.08,-2.72 -0.62,-1.02 -1.16,-2.1 -1.66,-3.21l-8.41 -18.65 0 26.3zm98.94 -28.26l0 28.26 -9.04 0 0 -27.11 -24.34 24.11c-1.14,1.27 -2.35,2.17 -3.61,2.73 -1.26,0.54 -2.57,0.82 -3.94,0.82 -1.41,0 -2.65,-0.27 -3.76,-0.82 -1.11,-0.54 -2.04,-1.27 -2.8,-2.19 -0.77,-0.92 -1.35,-1.99 -1.75,-3.23 -0.4,-1.23 -0.6,-2.54 -0.6,-3.93l0 -26.5 9.09 0 0 27.02 24.36 -24.32c2.36,-2.35 4.84,-3.53 7.44,-3.53 1.15,0 2.26,0.17 3.34,0.51 1.08,0.33 2.03,0.86 2.86,1.56 0.82,0.71 1.49,1.62 1.99,2.71 0.51,1.1 0.76,2.4 0.76,3.91zm47.98 8.99l0 -17.1 9.1 0 0 36.37 -9.1 0 0 -9.93 -29.37 0c-1.94,0 -3.74,-0.28 -5.42,-0.83 -1.68,-0.55 -3.13,-1.37 -4.38,-2.45 -1.24,-1.08 -2.22,-2.41 -2.93,-4 -0.71,-1.57 -1.06,-3.39 -1.06,-5.43l0 -13.73 9.78 0 0 17.1 33.38 0zm119.77 -16.94l0 9.1 -41.55 0 0 18.06 41.55 0 0 9.05 -39.09 0c-1.48,0 -2.93,-0.26 -4.34,-0.79 -1.41,-0.53 -2.66,-1.25 -3.77,-2.2 -1.1,-0.93 -1.98,-2.05 -2.65,-3.36 -0.68,-1.3 -1,-2.73 -1,-4.3l0 -12.19c0,-4.53 1.14,-7.89 3.42,-10.08 2.29,-2.19 5.66,-3.29 10.13,-3.29l37.3 0z"/>
  <path class="fil1" d="M0 164.61c69.34,-29.72 149.76,-53.07 236.9,-68.94 64.16,-11.68 131.91,-19.3 201.51,-22.43 2.54,-36.96 33.35,-66.17 70.96,-66.17 8.86,0 17.32,1.61 25.14,4.57 -2.88,4.25 -4.57,9.38 -4.57,14.9 0,25.21 28.11,32.05 43.42,20.57 -7.91,-16.24 -21.81,-29.03 -38.84,-35.47 4.78,-7.02 12.83,-11.64 21.96,-11.64 14.66,0 26.54,11.89 26.54,26.54 0,9.42 -3.93,16.27 -9.66,20.57 3.88,7.96 6.32,16.76 6.97,26.06 70.95,3.09 139.94,10.86 205.14,22.82 87.62,16.08 168.4,39.74 237.91,69.85 -159.1,-55.66 -343.39,-73.64 -443.37,-79.24 -4.16,35.32 -34.2,62.74 -70.64,62.74 -36.69,0 -66.9,-27.79 -70.72,-63.46 -161.84,7.51 -323.63,39.22 -438.65,78.73z"/>
 </g>
</svg>
