<svg width="1425" height="230" viewBox="0 0 1425 230" fill="none" xmlns="http://www.w3.org/2000/svg">
<path d="M0 228.286C96.5185 187.047 208.519 154.674 329.831 132.658C419.132 116.453 513.481 105.873 610.374 101.552C613.926 50.2915 656.819 9.76028 709.173 9.76028C721.514 9.76028 733.294 11.9955 744.176 16.0933C740.174 21.9793 737.819 29.0946 737.819 36.7687C737.819 71.712 776.972 81.2115 798.25 65.3045C787.256 42.7664 767.885 25.034 744.176 16.1305C750.832 6.37026 762.051 0 774.766 0C795.184 0 811.713 16.5031 811.713 36.806C811.713 49.8818 806.215 59.3813 798.25 65.3418C803.635 76.4059 807.038 88.5876 807.936 101.477C906.698 105.761 1002.77 116.565 1093.53 133.142C1215.51 155.42 1327.96 188.239 1424.74 230C1203.25 152.812 946.674 127.852 807.449 120.104C801.653 169.091 759.845 207.127 709.099 207.127C658.016 207.127 615.983 168.57 610.635 119.098C385.401 129.529 160.129 173.524 0 228.286Z" fill="#E1ECF5"/>
</svg>
